<?xml version="1.0" encoding="UTF-8" standalone="no"?>
<!-- Created with Inkscape (http://www.inkscape.org/) -->

<svg
   width="3000"
   height="3000"
   viewBox="0 0 793.74998 793.75"
   version="1.1"
   id="svg1"
   xml:space="preserve"
   xmlns="http://www.w3.org/2000/svg"
   xmlns:svg="http://www.w3.org/2000/svg"><defs
     id="defs1"><linearGradient
       id="swatch9"><stop
         style="stop-color:#000000;stop-opacity:1;"
         offset="0"
         id="stop9" /></linearGradient></defs><g
     id="layer1"><ellipse
       style="font-variation-settings:normal;display:inline;fill:#0c0c0c;fill-opacity:1;stroke:#ffffff;stroke-width:6.94395;stroke-linecap:round;stroke-linejoin:round;stroke-miterlimit:4;stroke-dasharray:none;stroke-dashoffset:0;stroke-opacity:1;paint-order:fill markers stroke;stop-color:#000000"
       id="ellipse9"
       cx="396.87503"
       cy="396.87503"
       rx="316.23065"
       ry="317.50003" /><ellipse
       style="font-variation-settings:normal;display:inline;fill:#ff0000;fill-opacity:0.978788;stroke:#ffffff;stroke-width:6.83883;stroke-linecap:round;stroke-linejoin:round;stroke-miterlimit:4;stroke-dasharray:none;stroke-dashoffset:0;stroke-opacity:1;paint-order:fill markers stroke;stop-color:#000000"
       id="path8"
       cx="396.87503"
       cy="396.87503"
       rx="247.20027"
       ry="248.19254" /><path
       id="path11"
       style="font-weight:bold;font-stretch:condensed;font-size:37.6093px;line-height:2.3;font-family:'Myriad Variable Concept';-inkscape-font-specification:'Myriad Variable Concept Bold Condensed';letter-spacing:-0.940234px;fill:#ffffff;stroke:none;stroke-width:6.83937;stroke-linecap:round;stroke-linejoin:round;paint-order:stroke fill markers"
       d="m 388.95713,99.787189 -0.71313,30.610541 5.74228,0.13384 0.56121,-24.09569 5.49372,24.23677 5.95105,0.139 6.63784,-23.95461 -0.56172,24.09621 5.74228,0.13384 0.71314,-30.61106 -9.27075,-0.216 -5.97793,20.75274 -5.06791,-21.01009 z m 39.39915,1.738911 -4.41731,30.29841 23.04408,3.35949 0.74466,-5.1046 -16.92714,-2.46807 1.20251,-8.24601 15.21096,2.21744 0.74466,-5.1046 -15.21147,-2.21795 0.97926,-6.71691 16.34784,2.38332 0.74724,-5.12526 z m -70.18849,1.05368 -6.46936,0.94258 -7.38819,32.01821 6.48953,-0.94569 1.49862,-7.24658 12.1114,-1.76424 3.64784,6.49728 6.65541,-0.96945 z m -23.27454,4.04575 -6.03012,1.36477 6.75979,29.86382 6.02961,-1.36477 z m 137.91819,3.10886 -9.11211,29.2318 11.1063,3.4618 c 2.18008,0.67965 3.98606,1.01686 5.41725,1.0108 1.91544,-0.0155 3.54029,-0.36233 4.87464,-1.04024 1.76613,-0.89336 3.34614,-2.28939 4.74027,-4.18839 1.14103,-1.55492 2.0865,-3.53569 2.83652,-5.94175 0.8536,-2.73838 1.25165,-5.13756 1.19373,-7.1975 -0.0538,-2.07323 -0.49156,-3.94501 -1.31258,-5.61567 -0.82103,-1.67066 -2.00988,-3.0257 -3.56723,-4.06539 -1.16012,-0.77 -2.95669,-1.53457 -5.38933,-2.29288 z m -116.92102,0.39584 5.81256,10.63501 -8.26719,1.20406 z m -41.30394,1.89911 c -1.61708,-0.0736 -3.31949,0.16943 -5.10667,0.72915 -4.09257,1.28174 -6.97217,3.66451 -8.63875,7.1484 -1.67072,3.47062 -1.74427,7.6378 -0.22117,12.50104 1.43988,4.59751 3.82475,7.83381 7.15511,9.70898 3.3262,1.86187 6.92919,2.18512 10.80917,0.96997 3.13587,-0.98212 5.47928,-2.56223 7.02954,-4.74029 1.5594,-2.19551 2.27824,-5.0252 2.15647,-8.48888 l -6.28852,-0.0222 c 0.17837,2.29328 -0.14126,4.115 -0.95859,5.4653 -0.81733,1.35029 -2.00963,2.27106 -3.57757,2.76211 -2.126,0.66583 -4.09919,0.42314 -5.91901,-0.72864 -1.81981,-1.15179 -3.30796,-3.57487 -4.46485,-7.26881 -1.0903,-3.48136 -1.2081,-6.20955 -0.35295,-8.18451 0.86844,-1.97912 2.38579,-3.308 4.55166,-3.98632 1.56794,-0.49108 3.03395,-0.46856 4.39819,0.0672 1.37752,0.53158 2.47603,1.50073 3.29592,2.90731 l 5.40329,-3.22408 c -1.3968,-2.13055 -2.95523,-3.61233 -4.67517,-4.44521 -1.447,-0.7068 -2.97901,-1.09693 -4.5961,-1.17047 z m 162.58594,4.49016 2.65151,0.8263 c 2.40606,0.75003 3.99221,1.34655 4.75837,1.78956 1.02874,0.58322 1.79672,1.32606 2.30322,2.22777 0.50651,0.90172 0.77051,2.0193 0.7922,3.35329 0.0217,1.33398 -0.31978,3.13105 -1.02423,5.39088 -0.70443,2.25982 -1.46112,3.98575 -2.27014,5.17747 -0.80489,1.17841 -1.61564,1.95376 -2.4319,2.32647 -0.80296,0.37684 -1.72008,0.53552 -2.75177,0.47646 -0.78913,-0.0419 -2.00776,-0.3192 -3.65611,-0.83303 l -4.40696,-1.37407 z m -196.76887,7.50083 -5.97896,2.64326 1.4733,32.82642 5.99808,-2.65204 -0.50075,-7.38301 11.19364,-4.94854 5.25756,5.27979 6.15104,-2.71922 z m 233.1315,0.0843 -23.28126,23.18875 5.9986,2.64997 5.12216,-5.34076 11.19571,4.94545 -0.36484,7.44243 6.15156,2.71767 1.15807,-32.96182 z m -233.29945,7.80004 8.45272,8.68576 -7.64088,3.3781 z m 233.33614,0.0248 -0.73174,12.09797 -7.6419,-3.37602 z m -258.2416,5.67872 c -0.38496,0.007 -0.77241,0.0465 -1.1622,0.11885 -1.55423,0.27018 -3.74044,1.23656 -6.55877,2.89905 l -11.20758,6.61097 15.55667,26.37255 5.32526,-3.14142 -6.4947,-11.00914 1.07952,-0.63665 c 1.22329,-0.7216 2.17688,-1.14676 2.86081,-1.27537 0.67687,-0.14061 1.42639,-0.0896 2.24844,0.15296 0.81498,0.23056 2.51063,0.96796 5.08754,2.21226 l 7.23523,3.46749 6.36808,-3.75636 -6.25492,-3.24528 c -2.48097,-1.3009 -4.33653,-2.13038 -5.56606,-2.48821 -1.21756,-0.36496 -2.60006,-0.54399 -4.14755,-0.53641 2.11654,-1.70116 3.37842,-3.53615 3.78478,-5.50561 0.39928,-1.98145 0.0149,-3.96188 -1.15238,-5.94072 -0.91968,-1.55907 -2.12031,-2.71775 -3.60237,-3.47628 -1.11155,-0.56889 -2.24488,-0.84315 -3.3998,-0.82268 z m -1.1901,5.9862 c 0.31925,0.0132 0.62758,0.0718 0.92501,0.17518 0.79806,0.25671 1.4588,0.8287 1.98231,1.71618 0.46692,0.79153 0.67587,1.55709 0.62734,2.29701 -0.0486,0.73993 -0.3268,1.40544 -0.83509,1.99627 -0.50828,0.59081 -2.03953,1.63972 -4.59402,3.14658 l -3.93982,2.32388 -3.94756,-6.6921 4.15582,-2.45153 c 2.15873,-1.2734 3.47166,-2.00722 3.93877,-2.20193 0.59275,-0.22841 1.15514,-0.33162 1.68724,-0.30954 z m 296.92658,1.66139 c -2.47564,-0.0846 -4.79673,0.46088 -6.96237,1.63608 -2.47502,1.34307 -4.58456,3.34884 -6.32933,6.01772 -1.60763,2.4591 -2.59605,5.06559 -2.9652,7.81865 -0.36152,2.7414 0.0845,5.32844 1.33842,7.7618 1.2615,2.42168 3.23229,4.50872 5.91282,6.26111 2.10947,1.37905 4.44889,2.34285 7.01818,2.89129 2.58857,0.54443 4.768,0.64678 6.53759,0.30645 l 6.674,-10.20971 -11.15331,-7.29155 -2.82258,4.31809 5.92625,3.87417 -2.12596,3.252 c -1.17704,0.0955 -2.45438,7.5e-4 -3.83181,-0.28422 -1.35816,-0.28901 -2.57896,-0.78797 -3.66282,-1.49655 -2.19105,-1.43237 -3.46727,-3.34803 -3.82871,-5.74693 -0.35382,-2.41055 0.46347,-5.13648 2.45205,-8.17831 1.84381,-2.8204 3.89871,-4.51332 6.16448,-5.07825 2.27742,-0.5573 4.54637,-0.0968 6.80733,1.38131 1.49178,0.97524 2.49333,2.15384 3.00396,3.5357 0.52988,1.37782 0.56389,2.81391 0.10236,4.30879 l 5.76812,2.39881 c 1.02626,-2.68944 1.0766,-5.28516 0.15038,-7.78712 -0.90694,-2.50599 -2.95127,-4.79915 -6.13296,-6.87917 -2.44744,-1.6 -4.77115,-2.51171 -6.97063,-2.73522 -0.35998,-0.0378 -0.71656,-0.0629 -1.07022,-0.075 z m -323.19733,10.3265 c -2.77759,-0.0302 -5.47551,0.94044 -8.09357,2.91197 -3.42584,2.57986 -5.33938,5.79043 -5.74124,9.63145 -0.41024,3.82991 0.91754,7.7805 3.98322,11.85148 2.89814,3.84851 6.22996,6.09753 9.99628,6.7474 3.75796,0.63873 7.26104,-0.2646 10.50892,-2.71043 2.625,-1.97677 4.30261,-4.25104 5.03277,-6.82285 0.73291,-2.5913 0.46122,-5.49808 -0.81494,-8.7204 l -5.93141,2.08774 c 0.93701,2.10069 1.24689,3.92375 0.92965,5.46994 -0.31723,1.54618 -1.13231,2.81345 -2.4448,3.80184 -1.77966,1.34018 -3.71965,1.773 -5.82032,1.29811 -2.10068,-0.47488 -4.31548,-2.25842 -6.64405,-5.35058 -2.19454,-2.91419 -3.22021,-5.44493 -3.07681,-7.5923 0.15453,-2.15573 1.13821,-3.91602 2.95124,-5.28133 1.3125,-0.98836 2.70126,-1.45903 4.16616,-1.4118 1.47602,0.0389 2.83629,0.58326 4.08036,1.63349 l 4.00907,-4.84932 c -2.03036,-1.53881 -3.99561,-2.41206 -5.89525,-2.61999 -0.40005,-0.0451 -0.79847,-0.0701 -1.19528,-0.0744 z m 348.7694,5.26687 -19.6298,23.4983 4.74442,3.96359 8.19484,-9.80974 0.9617,0.80357 c 1.08997,0.91052 1.8101,1.66634 2.1606,2.26756 0.35943,0.59053 0.56268,1.31359 0.60977,2.16938 0.0561,0.8451 -0.0699,2.69009 -0.37827,5.53506 l -0.84129,7.97884 5.67459,4.74028 0.96014,-6.98097 c 0.39378,-2.77355 0.55315,-4.79983 0.47802,-6.07818 -0.0645,-1.26942 -0.35978,-2.6317 -0.88574,-4.08709 2.31235,1.42365 4.46474,1.99678 6.45645,1.71927 2.00063,-0.28819 3.73711,-1.31414 5.21002,-3.07732 1.16047,-1.38919 1.84987,-2.90882 2.06757,-4.55942 0.2177,-1.65061 -0.0713,-3.16218 -0.86661,-4.53409 -0.77565,-1.37368 -2.41872,-3.10912 -4.92993,-5.20691 z m 1.42421,7.93853 3.70261,3.09335 c 1.92349,1.60683 3.05508,2.59763 3.39515,2.97243 0.66233,0.77096 0.99646,1.57617 1.00252,2.41587 0.0257,0.83795 -0.29181,1.6525 -0.9524,2.44327 -0.58916,0.70527 -1.24001,1.15878 -1.95337,1.36116 -0.71336,0.20237 -1.43355,0.16346 -2.16058,-0.11731 -0.72705,-0.28077 -2.22904,-1.37178 -4.50516,-3.27318 l -3.51037,-2.93265 z m -374.66602,8.20931 c -3.88645,-0.15872 -7.46155,1.31991 -10.72441,4.43539 -1.80262,1.72122 -3.11475,3.53234 -3.93671,5.43378 -0.62381,1.42346 -0.94603,3.00175 -0.96634,4.7346 -0.0102,1.72322 0.27147,3.38894 0.84491,4.99762 0.78685,2.17497 2.25717,4.39082 4.41109,6.64663 3.3655,3.52469 6.98168,5.36594 10.84844,5.52421 3.85714,0.1482 7.43237,-1.34996 10.72544,-4.4943 3.25278,-3.10588 4.8893,-6.5935 4.90977,-10.46344 0.0114,-3.88001 -1.69049,-7.60774 -5.10407,-11.18279 -3.44244,-3.60524 -7.11161,-5.48258 -11.00812,-5.6317 z m -1.66707,5.8348 c 0.28036,-0.007 0.56463,0.002 0.85214,0.0258 2.31017,0.1814 4.67666,1.54105 7.09982,4.07882 2.452,2.568 3.71958,5.04482 3.80236,7.43004 0.0833,2.36553 -0.76672,4.39946 -2.5492,6.10143 -1.7825,1.70199 -3.86806,2.46113 -6.25699,2.2779 -2.39854,-0.19329 -4.79491,-1.54386 -7.18922,-4.05143 -2.43276,-2.54784 -3.68642,-4.98936 -3.76049,-7.32514 -0.0837,-2.34585 0.79621,-4.3986 2.63911,-6.15827 1.61254,-1.53972 3.39987,-2.33297 5.36247,-2.37918 z m 407.86347,7.78815 -30.47773,12.28245 4.49223,4.77852 6.79803,-2.9223 8.38347,8.91728 -3.23649,6.71174 4.60643,4.89996 13.91181,-29.90464 z m -3.01584,7.22075 -5.38882,10.85619 -5.72213,-6.08698 z m -428.18006,2.83962 c -1.18557,0.0315 -2.29168,0.34757 -3.31814,0.94826 -1.37048,0.78131 -3.09936,2.43179 -5.18677,4.95164 l -8.30078,10.02057 23.57943,19.53266 3.94395,-4.76043 -9.84332,-8.15455 0.79943,-0.96479 c 0.90602,-1.09373 1.65848,-1.81744 2.25826,-2.17041 0.58904,-0.36184 1.31171,-0.56792 2.1673,-0.61857 0.84488,-0.0595 2.69042,0.059 5.53662,0.35554 l 7.98194,0.80821 4.71703,-5.69371 -6.98511,-0.93172 c -2.77514,-0.38232 -4.8017,-0.53309 -6.07973,-0.45269 -1.26915,0.0697 -2.63078,0.37032 -4.08398,0.90227 1.4141,-2.31819 1.97863,-4.47262 1.69292,-6.46317 -0.29645,-1.99942 -1.32927,-3.73147 -3.09853,-5.1971 -1.39395,-1.15473 -2.91671,-1.83757 -4.56819,-2.04845 -0.41287,-0.0527 -0.81714,-0.074 -1.21233,-0.0636 z m -0.42478,6.32829 c 0.83783,-0.0292 1.65339,0.28475 2.44688,0.94207 0.70769,0.58624 1.16461,1.23567 1.36994,1.94819 0.20528,0.71253 0.16873,1.43293 -0.10907,2.16111 -0.27777,0.72819 -1.36259,2.23465 -3.25458,4.5186 l -2.91818,3.52226 -5.98309,-4.9568 3.07785,-3.71502 c 1.59886,-1.93009 2.58508,-3.06594 2.95847,-3.40755 0.76823,-0.66548 1.57208,-1.00331 2.41174,-1.01286 z m 444.57233,5.28392 c -3.37751,0.0245 -6.846,1.37955 -10.40556,4.06538 -3.84575,2.9018 -6.0918,6.23607 -6.73809,10.00301 -0.63517,3.75856 0.27135,7.26078 2.72024,10.50633 1.97927,2.62313 4.25553,4.29884 6.82802,5.02657 2.592,0.73047 5.49825,0.45601 8.71936,-0.82321 l -2.09341,-5.92986 c -2.09982,0.93899 -3.92295,1.25059 -5.46944,0.93482 -1.54648,-0.31576 -2.81428,-1.12963 -3.8039,-2.44119 -1.34187,-1.77839 -1.77669,-3.71817 -1.30379,-5.81929 0.47289,-2.10111 2.25442,-4.31718 5.34437,-6.64869 2.91212,-2.1973 5.44222,-3.22541 7.58973,-3.08404 2.15588,0.15248 3.91739,1.13485 5.28442,2.94658 0.98962,1.31156 1.46129,2.69966 1.41542,4.16461 -0.0375,1.47606 -0.58083,2.83685 -1.62988,4.08192 l 4.85294,4.0044 c 1.53689,-2.03179 2.4087,-3.99799 2.61483,-5.89782 0.35831,-3.2008 -0.59085,-6.29583 -2.84685,-9.28574 -2.5831,-3.42339 -5.79521,-5.33424 -9.63663,-5.73247 -0.47879,-0.0508 -0.95927,-0.0748 -1.44178,-0.0713 z m -466.23716,11.49491 -3.38687,5.17177 14.1707,9.27954 c 2.02688,1.32725 3.42733,2.35277 4.20182,3.0763 0.77449,0.72352 1.22087,1.6561 1.33842,2.79828 0.10588,1.13454 -0.32202,2.43589 -1.28313,3.90363 -0.94587,1.44445 -2.00761,2.37975 -3.18585,2.80655 -1.18226,0.40757 -2.37029,0.37888 -3.5636,-0.0863 -0.73625,-0.29903 -2.20536,-1.16954 -4.40697,-2.61121 l -13.87357,-9.08471 -3.38688,5.17228 13.66428,8.94726 c 2.8656,1.87647 5.14268,3.12635 6.83163,3.74964 1.1427,0.41541 2.40855,0.55386 3.7977,0.41496 1.37752,-0.14651 2.7638,-0.66186 4.15841,-1.54616 1.39057,-0.90357 2.88675,-2.57878 4.4886,-5.025 1.32727,-2.02688 2.14647,-3.83699 2.45774,-5.43069 0.29962,-1.60132 0.25679,-3.06094 -0.12868,-4.37855 -0.37784,-1.32925 -1.11011,-2.54922 -2.19676,-3.66023 -1.08665,-1.11101 -3.16777,-2.67328 -6.24303,-4.68706 z m 487.66481,9.94461 -25.77673,16.52509 3.33675,5.20433 25.77672,-16.52458 z m -502.2789,21.04729 c -1.23951,0.0757 -2.35877,0.39202 -3.35742,0.94827 -0.99239,0.54381 -1.84554,1.30631 -2.55954,2.28719 -0.72015,0.96217 -1.62663,2.52411 -2.71921,4.68654 l -5.51956,10.9244 27.32856,13.80794 4.69997,-9.30228 c 1.75218,-3.52961 2.81131,-5.77956 3.17656,-6.74945 0.57938,-1.5481 0.77187,-2.99497 0.57826,-4.34083 -0.19978,-1.36456 -0.73915,-2.62802 -1.61851,-3.78995 -0.88551,-1.18063 -1.9498,-2.08456 -3.19257,-2.71249 -1.57832,-0.79746 -3.17733,-1.04404 -4.79764,-0.7395 -1.62031,0.30456 -3.09378,1.16702 -4.41989,2.58745 0.0621,-1.45065 -0.26824,-2.78758 -0.99167,-4.01112 -0.71715,-1.23597 -1.71613,-2.17736 -2.9962,-2.82412 -1.18063,-0.59653 -2.38407,-0.85409 -3.61114,-0.77205 z m 515.44036,1.05213 -32.65951,3.61941 3.03909,5.81154 7.33393,-0.98289 5.67148,10.84585 -4.92476,5.59192 3.1166,5.95983 21.45244,-25.05221 z m -515.58867,5.05964 c 0.58626,-0.0372 1.19604,0.10452 1.82985,0.42479 0.88238,0.44581 1.45909,1.08013 1.72961,1.90323 0.26439,0.80441 0.21396,1.70682 -0.15141,2.70785 -0.20158,0.55336 -0.84586,1.90506 -1.93218,4.05505 l -1.82728,3.61683 -6.3195,-3.19308 1.60144,-3.16932 c 1.31236,-2.5974 2.13792,-4.15354 2.47634,-4.66897 0.57652,-0.86314 1.24814,-1.38993 2.01486,-1.57974 0.19015,-0.0521 0.38284,-0.0843 0.57827,-0.0967 z m 510.73936,1.08211 -8.11372,9.00359 -3.87109,-7.40369 z m -498.72304,3.6468 c 0.58838,0.0165 1.1904,0.1801 1.80557,0.49093 0.96936,0.48978 1.61439,1.14351 1.93477,1.9606 0.3142,0.79838 0.33867,1.64534 0.0734,2.54093 -0.15814,0.59091 -0.73992,1.88057 -1.7446,3.86902 l -2.58071,5.10769 -7.30757,-3.69227 2.25154,-4.45554 c 1.2684,-2.51042 2.221,-4.07223 2.85874,-4.68603 0.64402,-0.62622 1.35232,-0.99393 2.12494,-1.10278 0.19316,-0.0272 0.38781,-0.038 0.58395,-0.0325 z" /><path
       id="path21"
       style="font-weight:bold;font-size:37.6093px;line-height:2.3;font-family:Arial;-inkscape-font-specification:'Arial Bold';letter-spacing:2.64583px;fill:#ffffff;stroke:none;stroke-width:2.27468;stroke-linecap:round;stroke-linejoin:round;paint-order:stroke fill markers"
       d="m 472.38511,653.27794 -5.9464,1.69034 8.37054,29.45247 5.94641,-1.68982 z m -152.35814,0.0102 -7.21713,29.75582 5.58209,1.35391 5.68131,-23.42337 0.20515,24.8512 5.78466,1.40301 11.58792,-21.99091 -5.6813,23.42338 5.58157,1.35392 7.21713,-29.75633 -9.01185,-2.18591 -10.26139,19.00298 -0.47594,-21.60695 z m 127.99323,6.25286 -6.04977,1.27433 6.25854,29.71653 21.09173,-4.4421 -1.0635,-5.04827 -15.04197,3.16776 z m -93.75759,1.49137 -3.64371,30.40125 23.12262,2.77141 0.61393,-5.12217 -16.9845,-2.03606 0.99218,-8.27391 15.26264,1.82936 0.61392,-5.12218 -15.26265,-1.82934 0.80771,-6.73964 16.40366,1.96577 0.61598,-5.14284 z m 72.32737,1.5565 -6.504,0.65887 -8.77879,31.66525 6.52466,-0.66094 1.81333,-7.17476 12.17704,-1.23351 3.36103,6.65023 6.69107,-0.67799 z m -44.35079,1.53789 -0.26354,30.61777 11.63288,0.10031 c 2.28345,0.0197 4.10948,-0.18061 5.4777,-0.60048 1.82901,-0.56907 3.284,-1.37102 4.36511,-2.40606 1.43206,-1.36619 2.5404,-3.1599 3.32538,-5.38106 0.64229,-1.81858 0.97411,-3.98798 0.9958,-6.50814 0.0247,-2.86823 -0.28845,-5.27964 -0.93999,-7.2347 -0.65142,-1.96896 -1.61163,-3.63446 -2.88096,-4.99607 -1.26933,-1.3616 -2.79988,-2.31469 -4.59146,-2.85925 -1.33329,-0.40134 -3.27387,-0.61312 -5.82186,-0.63512 z m 6.1371,5.23275 2.77813,0.0238 c 2.52015,0.0217 4.21098,0.13405 5.07255,0.3364 1.15349,0.26058 2.10317,0.74898 2.84892,1.46556 0.74576,0.71657 1.32178,1.71006 1.72858,2.98069 0.4068,1.27063 0.60021,3.08952 0.57981,5.45651 -0.0204,2.367 -0.24532,4.23775 -0.67489,5.61258 -0.42946,1.36091 -0.9812,2.33813 -1.65469,2.93108 -0.65956,0.59308 -1.49131,1.01066 -2.49596,1.25265 -0.76748,0.18832 -2.01487,0.27479 -3.74138,0.25993 l -4.61574,-0.0398 z m 35.6092,0.67283 5.34283,10.87892 -8.31217,0.84233 z" /><path
       id="path9"
       style="font-variation-settings:normal;display:inline;fill:#000000;fill-opacity:1;stroke:#000000;stroke-width:5.6867;stroke-linecap:round;stroke-linejoin:round;stroke-miterlimit:4;stroke-dasharray:none;stroke-dashoffset:0;stroke-opacity:1;paint-order:stroke fill markers;stop-color:#000000"
       d="m 376.53487,215.48474 c 0,0 -32.5114,1.10265 -60.55232,13.91865 l 0.33622,362.4883 c 0,0 22.20351,11.02892 60.21611,15.36425 V 440.13436 c 13.61893,4.40368 66.95716,26.31387 66.95716,99.48991 v 65.53678 c 0,0 18.57158,-2.65213 40.12246,-15.96638 v -49.95481 c -0.34839,-64.09264 -34.78482,-98.22644 -65.07347,-115.87804 30.28876,-17.48349 64.72508,-51.29314 65.07347,-114.77564 V 232.89672 C 463.4243,220.2107 443.49204,218.96048 443.49204,218.96048 v 89.24513 c 0,71.69545 -52.12399,93.67439 -66.43508,98.36401 -0.19563,-0.0461 -0.34181,-0.0784 -0.52208,-0.11962 z m -75.73634,20.35224 c 0,0 -113.30694,49.48406 -113.30694,175.81089 0,126.32682 113.82066,173.87685 113.82066,173.87685 V 436.78616 h -43.7457 v 27.07032 h 17.49786 v 77.34486 c 0,0 -55.58244,-56.55891 -46.31846,-135.83804 9.26398,-79.2791 72.05258,-88.46443 72.05258,-88.46443 z m 196.32727,6.8711 -0.0122,340.93955 c 21.22856,-9.00552 34.74099,-21.87043 34.74099,-21.87043 V 440.78361 h 38.91335 v 85.35745 c 0,0 21.57429,-18.46618 28.99607,-50.24115 V 352.03869 C 589.1667,322.42359 570.76798,298.62968 570.76798,298.62968 V 415.92783 H 531.85466 V 265.47099 c 0,0 -12.67822,-11.52237 -34.72841,-22.76291 z" /><path
       id="path1"
       style="font-variation-settings:normal;fill:#fff9f9;fill-opacity:1;stroke:#000000;stroke-width:5.6867;stroke-linecap:round;stroke-linejoin:round;stroke-miterlimit:4;stroke-dasharray:none;stroke-dashoffset:0;stroke-opacity:1;paint-order:fill markers stroke;stop-color:#000000"
       d="m 376.53235,184.16208 c 0,0 -32.51621,1.17412 -60.56129,14.82075 l 0.33628,385.98308 c 0,0 22.20679,11.74373 60.22501,16.36008 V 423.3724 c 13.62093,4.6891 66.96704,28.01939 66.96704,105.93837 v 69.78457 c 0,0 18.57433,-2.82402 40.12841,-17.00126 v -53.19265 c -0.34839,-68.24678 -34.78997,-104.59301 -65.0831,-123.3887 30.29326,-18.61666 64.73466,-54.61773 65.0831,-122.21489 v -80.59523 c -20.19319,-13.50826 -40.12841,-14.83952 -40.12841,-14.83952 v 95.02953 c 0,76.34244 -52.13167,99.74593 -66.44489,104.73952 -0.19566,-0.0489 -0.34185,-0.0837 -0.52215,-0.12731 z m -75.74754,21.67135 c 0,0 -113.32369,52.6914 -113.32369,187.20611 0,134.51475 113.83748,185.14674 113.83748,185.14674 V 419.80717 h -43.75215 v 28.82486 h 17.50043 v 82.35799 c 0,0 -55.59066,-60.22477 -46.32532,-144.64237 9.26536,-84.41759 72.06325,-94.19832 72.06325,-94.19832 z m 196.35631,7.31642 -0.0122,363.03765 c 21.23167,-9.58923 34.74612,-23.28798 34.74612,-23.28798 V 424.06374 h 38.91909 v 90.88993 c 0,0 21.57747,-19.66308 29.00035,-53.49759 V 329.56677 C 589.19559,298.03216 570.79416,272.69606 570.79416,272.69606 V 397.59688 H 531.87511 V 237.38814 c 0,0 -12.68012,-12.26916 -34.73355,-24.23829 z" /></g></svg>
